<svg width="49" height="49" viewBox="0 0 49 49" fill="none" xmlns="http://www.w3.org/2000/svg">
<path d="M1.80351 1.80375C2.66295 0.944574 3.82844 0.461914 5.04369 0.461914C6.25893 0.461914 7.42443 0.944574 8.28387 1.80375L24.4893 18.0092L40.6948 1.80375C41.5592 0.968923 42.7168 0.506983 43.9185 0.517425C45.1201 0.527867 46.2696 1.00986 47.1193 1.85958C47.9691 2.70931 48.4511 3.85878 48.4615 5.06042C48.4719 6.26207 48.01 7.41975 47.1752 8.28411L30.9697 24.4896L47.1752 40.6951C48.01 41.5594 48.4719 42.7171 48.4615 43.9187C48.4511 45.1204 47.9691 46.2699 47.1193 47.1196C46.2696 47.9693 45.1201 48.4513 43.9185 48.4617C42.7168 48.4722 41.5592 48.0102 40.6948 47.1754L24.4893 30.9699L8.28387 47.1754C7.4195 48.0102 6.26183 48.4722 5.06018 48.4617C3.85853 48.4513 2.70906 47.9693 1.85934 47.1196C1.00961 46.2699 0.527623 45.1204 0.517181 43.9187C0.506739 42.7171 0.968679 41.5594 1.80351 40.6951L18.009 24.4896L1.80351 8.28411C0.944329 7.42467 0.46167 6.25918 0.46167 5.04393C0.46167 3.82868 0.944329 2.66319 1.80351 1.80375V1.80375Z" fill="#EBF5EE"/>
</svg>
